<svg viewBox="0 0 128 128" version="1.1" xmlns="http://www.w3.org/2000/svg" xmlns:xlink="http://www.w3.org/1999/xlink">
        <g stroke="none" stroke-width="1" fill="none" fill-rule="evenodd">
            <g class="carousel-chevron" transform="translate(47.000000, 32.000000)" fill="#FFFFFF" fill-rule="nonzero">
                <path d="M0.925490554,63.066945 C0.416470749,62.5537681 0,62.0916232 0,62.0399647 C0,61.9883061 6.67640547,55.2404671 14.8364566,47.0447761 C22.9965077,38.8490775 29.6729132,32.1004208 29.6729132,32.0477612 C29.6729132,31.995094 22.9965077,25.2464373 14.8364566,17.0507463 C6.67640547,8.85504764 0,2.08414567 0,2.00428896 C0,1.81737839 1.81260414,0 1.99901851,0 C2.07660938,0 9.30856786,7.19999618 18.0700433,16 L34,32 L18.0700433,48 C9.30856786,56.7999962 2.07503443,64 1.99553385,64 C1.91603326,64 1.43451797,63.5801218 0.925490554,63.066945 L0.925490554,63.066945 Z"></path>
            </g>
        </g>
    </svg>