<?xml version="1.0" encoding="utf-8"?>
<!-- Generator: Adobe Illustrator 22.0.1, SVG Export Plug-In . SVG Version: 6.00 Build 0)  -->
<svg version="1.1" id="Layer_1" xmlns="http://www.w3.org/2000/svg" xmlns:xlink="http://www.w3.org/1999/xlink" x="0px" y="0px"
	 viewBox="0 0 34.4 63.9" style="enable-background:new 0 0 34.4 63.9;" xml:space="preserve">
<style type="text/css">
	.st0{fill:#383737;}
</style>
<g>
	<g transform="translate(47.000000, 32.000000)">
		<path id="Shape" class="st0" d="M-45.7,31.2c-0.5-0.5-0.9-1-0.9-1c0-0.1,6.7-6.8,14.8-15S-17,0.2-17,0.2c0-0.1-6.7-6.8-14.8-15
			c-8.2-8.2-14.8-15-14.8-15c0-0.2,1.8-2,2-2c0.1,0,7.3,7.2,16.1,16l15.9,16l-15.9,16c-8.8,8.8-16,16-16.1,16
			C-44.7,32.1-45.2,31.7-45.7,31.2L-45.7,31.2z"/>
	</g>
</g>
</svg>
